<svg xmlns="http://www.w3.org/2000/svg" width="777" height="480"><rect width="100%" height="100%" fill="#FFF"/><g class="currentLayer"><path fill="#fff" stroke="#222" stroke-width="2" stroke-linejoin="round" d="M299 262.683c0-67.404 52.36-122 117-122s117 54.596 117 122c0 67.403-52.36 122-117 122s-117-54.597-117-122z" class="selected"/><path fill="#fff" stroke="#222" stroke-width="2" stroke-linejoin="round" d="M347.143 260.214c0-41.16 31.326-74.5 70-74.5s70 33.34 70 74.5-31.326 74.5-70 74.5-70-33.34-70-74.5zm-3.899-92.297l177 38.794M357.2 170.222v-.555m62.952-28.334L529.2 298m-52.38-140l21.904 193.333m31.905-112.381L406.343 385.62m117.143-139.049h-.476m-2.381 72.381l-186.19 30.477m136.666 20.952l-170.476-87.62m76.666 95.715l-53.333-190m-4.286 144.286l57.143-184.286m-78.095 101.905l158.571-101.429"/><path fill="#fff" stroke="#222" stroke-width="2" stroke-linejoin="round" d="M352.81 260.952c0-36.253 29.013-65.619 64.833-65.619 35.82 0 64.833 29.366 64.833 65.62 0 36.253-29.014 65.618-64.833 65.618-35.82 0-64.833-29.365-64.833-65.619z"/><path fill="#fff" stroke="#222" stroke-width="2" stroke-linejoin="round" d="M359.238 261.381c0-30.387 26.18-55 58.5-55s58.5 24.613 58.5 55-26.18 55-58.5 55-58.5-24.613-58.5-55z"/><path fill="#fff" stroke="#222" stroke-width="2" stroke-linejoin="round" d="M368.095 262.286c0-25.94 22.237-46.953 49.69-46.953 27.454 0 49.691 21.012 49.691 46.953 0 25.94-22.237 46.952-49.69 46.952-27.454 0-49.69-21.012-49.69-46.952z"/></g></svg>